<svg width="24" height="24" viewBox="0 0 24 24" fill="none" xmlns="http://www.w3.org/2000/svg">
<path d="M11.5 19V11M11.5 11.5V14.5M11.5 11.5C11.5 10.4391 11.0786 9.42172 10.3284 8.67157C9.57828 7.92143 8.56087 7.5 7.5 7.5H4.5V10.5C4.5 11.5609 4.92143 12.5783 5.67157 13.3284C6.42172 14.0786 7.43913 14.5 8.5 14.5H11.5M11.5 11.5L15.5 7.5M11.5 14.5L7.5 10.5M11.5 11.5H14.5C15.5609 11.5 16.5783 11.0786 17.3284 10.3284C18.0786 9.57828 18.5 8.56087 18.5 7.5V4.5H15.5C14.4391 4.5 13.4217 4.92143 12.6716 5.67157C11.9214 6.42172 11.5 7.43913 11.5 8.5V11.5Z" stroke="#F59E0B"/>
</svg>
